:SAMPLES-PER-SECOND 30
:FULLY-SPECIFIED
:DEGREES
79
root  1.60522 39.9918 1.81874 28.9629 -85.2609 -31.2194
RightUpLeg  0.0834516 -8.12571 -7.16118
RightLeg  2.22446 -5.79589 -0.446922
RightFoot  3.80408 -1.61496 12.2988
RightToes  -1.33073e-015 0 -3.6325e-017
Spine  3.88055 -1.19927 0.778539
Spine1  1.56108 -1.71796 2.78576
HEad  0.557456 -12.0795 -2.97278
LeftShoulder1  2.55113 -5.9915 -20.4503
LeftArm  6.24128 7.29038 -54.4101
LeftForeArm  0.691748 -11.1526 -12.917
LeftHand  -0.3371 1.28756 9.46943
RightShoulder  1.87524 3.47835 20.5339
RightArm  -15.3663 -7.74387 51.4091
RightForeArm  22.6684 4.16911 12.3428
RightHand  -0.384968 -1.95375 -12.8213
LeftUpLeg  1.36567 12.6738 15.801
LeftLeg  0.752619 -2.73667 1.66804
LeftFoot  2.24573 1.99802 -16.7854
LeftToes  -4.0021e-011 8.38769e-011 -3.99229e-011
80
root  1.62197 39.9854 1.88867 26.0993 -85.0025 -28.2634
RightUpLeg  -0.00610058 -8.24212 -7.39278
RightLeg  2.33285 -6.01504 -0.456288
RightFoot  3.81742 -1.62288 12.3499
RightToes  -1.33073e-015 0 -3.6325e-017
Spine  3.9256 -1.21471 0.407181
Spine1  1.28544 -1.83066 3.3119
HEad  0.783978 -12.3993 -3.0605
LeftShoulder1  2.54071 -5.88811 -20.6473
LeftArm  7.69174 6.9767 -54.5118
LeftForeArm  -1.69325 -12.5199 -12.2719
LeftHand  -0.384493 0.863768 9.85301
RightShoulder  1.86974 3.49943 20.3622
RightArm  -17.0246 -9.02484 52.1681
RightForeArm  25.1498 1.44886 12.2121
RightHand  -0.296429 -2.55155 -11.7891
LeftUpLeg  0.876941 12.5077 15.4783
LeftLeg  1.25086 -2.84719 1.67444
LeftFoot  2.05077 1.94102 -16.5424
LeftToes  -4.0021e-011 8.38769e-011 -3.99229e-011
81
root  1.65336 39.9748 1.98013 24.2649 -84.8393 -26.3304
RightUpLeg  -0.161308 -8.2969 -7.60265
RightLeg  2.44674 -6.15376 -0.533577
RightFoot  3.86009 -1.64916 12.5121
RightToes  -1.33073e-015 0 -3.6325e-017
Spine  4.09547 -1.27906 0.447537
Spine1  0.909611 -1.87642 3.26797
HEad  0.972681 -12.0809 -2.95277
LeftShoulder1  2.50093 -5.80366 -20.4524
LeftArm  9.06413 6.87864 -54.8028
LeftForeArm  -3.73681 -13.7635 -11.6104
LeftHand  -0.401486 0.709879 9.96587
RightShoulder  1.89905 3.53236 20.6753
RightArm  -17.5806 -10.0618 52.462
RightForeArm  26.8803 -0.967009 11.9451
RightHand  -0.198021 -3.34021 -10.5323
LeftUpLeg  0.277795 12.1688 15.07
LeftLeg  1.97171 -2.74796 1.84524
LeftFoot  1.71049 1.87252 -16.3672
LeftToes  -4.0021e-011 8.38769e-011 -3.99229e-011
82
root  1.67841 39.968 2.06857 24.0072 -84.8368 -26.0177
RightUpLeg  -0.207816 -8.24643 -7.7015
RightLeg  2.33589 -6.18934 -0.64712
RightFoot  3.98116 -1.68531 12.6848
RightToes  -1.33073e-015 0 -3.6325e-017
Spine  4.21324 -1.25087 0.655335
Spine1  0.727898 -1.79392 3.00312
HEad  0.752797 -10.9309 -2.79437
LeftShoulder1  2.44493 -5.6931 -20.1464
LeftArm  10.2567 6.67265 -55.1455
LeftForeArm  -4.86074 -14.5627 -11.1607
LeftHand  -0.396102 0.734637 9.881
RightShoulder  1.93825 3.53314 21.2699
RightArm  -17.9012 -10.9585 52.3533
RightForeArm  28.376 -2.87161 11.706
RightHand  -0.1147 -4.13621 -9.18017
LeftUpLeg  -0.205888 11.9294 14.7889
LeftLeg  2.75557 -2.64676 1.97136
LeftFoot  1.3481 1.81663 -16.3196
LeftToes  -4.0021e-011 8.38769e-011 -3.99229e-011
83
root  1.6773 39.9704 2.13983 24.7646 -85.008 -26.7643
RightUpLeg  -0.101724 -8.19783 -7.77437
RightLeg  2.00489 -6.07673 -0.700026
RightFoot  4.1692 -1.72438 12.8236
RightToes  -1.33073e-015 0 -3.6325e-017
Spine  4.14634 -1.08205 0.743539
Spine1  0.891849 -1.62091 2.95575
HEad  0.0543817 -9.12196 -2.58485
LeftShoulder1  2.40787 -5.56628 -20.1067
LeftArm  11.1323 6.32393 -55.2848
LeftForeArm  -5.12339 -14.816 -11.0415
LeftHand  -0.395248 0.754657 9.90045
RightShoulder  1.94723 3.5091 21.5079
RightArm  -18.1942 -11.9772 52.3125
RightForeArm  28.5055 -3.80907 11.5858
RightHand  -0.0729962 -4.62022 -8.33235
LeftUpLeg  -0.350176 11.8904 14.6562
LeftLeg  3.19823 -2.51005 1.95437
LeftFoot  1.15829 1.77741 -16.2043
LeftToes  -4.0021e-011 8.38769e-011 -3.99229e-011
84
root  1.66492 39.9766 2.20407 25.3354 -85.2534 -27.2987
RightUpLeg  -0.0285981 -8.23429 -7.93054
RightLeg  1.71119 -5.85015 -0.684836
RightFoot  4.35081 -1.76199 12.9534
RightToes  -1.33073e-015 0 -3.6325e-017
Spine  3.98488 -0.925725 0.743444
Spine1  1.18217 -1.4908 3.05326
HEad  -0.821439 -7.04369 -2.19218
LeftShoulder1  2.40664 -5.51198 -20.2628
LeftArm  11.4564 6.17538 -55.1895
LeftForeArm  -5.05773 -14.7425 -11.1206
LeftHand  -0.387232 0.889178 9.97489
RightShoulder  1.93373 3.50623 21.3142
RightArm  -18.4356 -13.1329 52.4142
RightForeArm  26.7688 -3.62239 11.6158
RightHand  -0.0794524 -4.55465 -8.5039
LeftUpLeg  -0.249657 11.8541 14.503
LeftLeg  3.14616 -2.16972 1.94313
LeftFoot  1.09742 1.74521 -15.9896
LeftToes  -4.0021e-011 8.38769e-011 -3.99229e-011
85
root  1.66968 39.9804 2.26519 24.9188 -85.4063 -26.7838
RightUpLeg  -0.0806521 -8.32781 -8.14381
RightLeg  1.54069 -5.65517 -0.64073
RightFoot  4.48412 -1.79499 13.085
RightToes  -1.33073e-015 0 -3.6325e-017
Spine  3.93388 -0.942985 0.725759
Spine1  1.29476 -1.52433 3.09365
HEad  -1.56488 -5.03445 -1.66618
LeftShoulder1  2.41789 -5.54139 -20.3033
LeftArm  11.0295 6.42705 -55.0732
LeftForeArm  -4.58497 -14.4577 -11.2921
LeftHand  -0.366596 1.11997 9.92669
RightShoulder  1.92227 3.51299 21.1106
RightArm  -18.4975 -14.1126 52.3713
RightForeArm  24.703 -2.59668 11.7375
RightHand  -0.130687 -3.96425 -9.40847
LeftUpLeg  -0.263891 11.7464 14.2827
LeftLeg  3.053 -1.84704 1.96616
LeftFoot  1.02312 1.72737 -15.9194
LeftToes  -4.0021e-011 8.38769e-011 -3.99229e-011
86
root  1.68913 39.9854 2.30485 24.1893 -85.4213 -25.9524
RightUpLeg  -0.119959 -8.40164 -8.28717
RightLeg  1.34168 -5.61773 -0.580836
RightFoot  4.60763 -1.8212 13.1742
RightToes  -1.33073e-015 0 -3.6325e-017
Spine  4.0427 -1.09006 0.584565
Spine1  1.23285 -1.70616 3.20928
HEad  -2.13268 -3.28132 -1.2449
LeftShoulder1  2.41873 -5.58255 -20.1837
LeftArm  9.7649 6.91324 -55.033
LeftForeArm  -3.2393 -13.7462 -11.6671
LeftHand  -0.371216 1.10057 10.006
RightShoulder  1.90839 3.47518 21.0569
RightArm  -18.2534 -14.6101 52.1086
RightForeArm  24.3237 -1.18959 11.912
RightHand  -0.192031 -3.32051 -10.1337
LeftUpLeg  -0.457111 11.7714 14.1658
LeftLeg  3.2139 -1.91071 1.85692
LeftFoot  1.01125 1.7359 -16.0113
LeftToes  -4.0021e-011 8.38769e-011 -3.99229e-011
87
root  1.7031 39.9924 2.30965 24.8388 -85.4174 -26.5685
RightUpLeg  -0.104998 -8.38334 -8.2434
RightLeg  1.1766 -5.70479 -0.542434
RightFoot  4.7158 -1.83248 13.1693
RightToes  -1.33073e-015 0 -3.6325e-017
Spine  4.25494 -1.21245 0.347879
Spine1  1.13988 -1.90298 3.54414
HEad  -2.5966 -1.87882 -1.0293
LeftShoulder1  2.42989 -5.64731 -20.1126
LeftArm  7.74006 7.46203 -54.8383
LeftForeArm  -1.25824 -12.4715 -12.2982
LeftHand  -0.405365 0.800464 10.2551
RightShoulder  1.88528 3.40754 20.9859
RightArm  -17.684 -14.5482 51.7883
RightForeArm  25.6594 0.13547 12.1466
RightHand  -0.212615 -3.09648 -10.2158
LeftUpLeg  -0.499229 11.9632 14.2792
LeftLeg  3.22897 -2.15045 1.67775
LeftFoot  1.13208 1.75247 -16.0126
LeftToes  -4.0021e-011 8.38769e-011 -3.99229e-011
88
root  1.71568 39.9909 2.28032 27.6108 -85.4398 -29.3594
RightUpLeg  -0.200301 -8.21467 -7.94743
RightLeg  1.29421 -5.82648 -0.591194
RightFoot  4.69155 -1.81383 13.0571
RightToes  -1.33073e-015 0 -3.6325e-017
Spine  4.62263 -1.27264 0.258984
Spine1  0.945064 -2.03064 3.92601
HEad  -2.95935 -0.828186 -0.906083
LeftShoulder1  2.47871 -5.78753 -20.2461
LeftArm  5.74194 8.12928 -54.1723
LeftForeArm  0.692672 -11.1939 -12.8462
LeftHand  -0.404923 0.623066 9.86564
RightShoulder  1.869 3.37556 20.8684
RightArm  -16.8308 -13.9778 51.4511
RightForeArm  26.9198 0.967326 12.4149
RightHand  -0.203772 -3.17736 -10.1053
LeftUpLeg  -0.333037 12.1266 14.5917
LeftLeg  2.91819 -2.16759 1.67552
LeftFoot  1.17374 1.76132 -16.0414
LeftToes  -4.0021e-011 8.38769e-011 -3.99229e-011
89
root  1.74351 39.9795 2.20505 31.6403 -85.3977 -33.3791
RightUpLeg  -0.482888 -7.8989 -7.41179
RightLeg  1.65556 -6.00497 -0.709439
RightFoot  4.47229 -1.76061 12.8493
RightToes  -1.33073e-015 0 -3.6325e-017
Spine  5.1913 -1.31511 0.389266
Spine1  0.545471 -2.09229 4.13011
HEad  -3.2967 -0.0297776 -0.807762
LeftShoulder1  2.53521 -5.88806 -20.5856
LeftArm  5.86895 9.02315 -52.989
LeftForeArm  2.33696 -11.3234 -12.6931
LeftHand  -0.356264 0.507161 8.50397
RightShoulder  1.8652 3.37508 20.8112
RightArm  -15.8037 -13.0871 51.0816
RightForeArm  26.989 1.44798 12.6737
RightHand  -0.189942 -3.36111 -10.2066
LeftUpLeg  -0.327173 12.3336 15.075
LeftLeg  2.82141 -2.22544 1.72985
LeftFoot  1.09781 1.80145 -16.4956
LeftToes  -4.0021e-011 8.38769e-011 -3.99229e-011
